{
  "title": "Still.Life.2013.DVDRip.x264.HORiZON-ArtSubs",
  "uid": 9908634,
  "size": 1453981361,
  "categoryP": "video",
  "categoryS": "movies",
  "magnet": "?xt=urn:btih:11412093f19b55becb6a9b7d2937ce33b8afb522&amp;dn=Still.Life.2013.DVDRip.x264.HORiZON-ArtSubs&amp;tr=udp%3A%2F%2Ftracker.openbittorrent.com%3A80&amp;tr=udp%3A%2F%2Fopen.demonii.com%3A1337&amp;tr=udp%3A%2F%2Ftracker.coppersurfer.tk%3A6969&amp;tr=udp%3A%2F%2Fexodus.desync.com%3A6969",
  "seeders": 45,
  "leechers": 0,
  "uploader": "lletaif",
  "files": 1,
  "time": 1396851343,
  "description": "Title:\nStill Life \n\n\nCountry:\nUK, 2013\n\n\nLanguage:\nEnglish\n\n\nSubtitle:\nItalian\n\n\nIMDB: &lt;a href=&quot;\nhttp://www.imdb.com/title/tt2395417&quot; rel=&quot;nofollow&quot; target=&quot;_NEW&quot;&gt;\nhttp://www.imdb.com/title/tt2395417&lt;/a&gt;\n\nTrivia:\nWon Horizons prizes in Venice Film Festival 2013\n\n\nPlot:\nStill Life is a poignant, quixotic tale of life, love and the afterlife. Meticulous and organized to the point of obsession, John May (Eddie Marsan) is a council worker charged with finding the next of kin of those who have died alone. When his department is downsized, John must up his efforts on his final case, taking him on a liberating journey that allows him to start living life at last. \n\n\nMedia Info:\n\nGeneral\nUnique ID                                : 250444243055513962442668753362926187660 (0xBC69CE848BEF630896879CF9C078348C)\nComplete name                            : Still.Life.2013.DVDRip.x264.HORiZON-ArtSubs.mkv\nFormat                                   : Matroska\nFormat version                           : Version 4 / Version 2\nFile size                                : 1.35 GiB\nDuration                                 : 1h 28mn\nOverall bit rate                         : 2 196 Kbps\nEncoded date                             : UTC 2014-04-06 14:48:54\nWriting application                      : mkvmerge v6.6.0 \nWriting library                          : libebml v1.3.0 \n\nVideo\nID                                       : 1\nFormat                                   : AVC\nFormat/Info                              : Advanced Video Codec\nFormat profile                           : &lt;a class=&quot;__cf_email__&quot; href=&quot;/cdn-cgi/l/email-protection&quot; data-cfemail=&quot;7c34151b143c304f524d&quot;&gt;[email&amp;#160;protected]&lt;/a&gt;&lt;script cf-hash='f9e31' type=&quot;text/javascript&quot;&gt;\n/* &lt;![CDATA[ */!function(){try{var t=&quot;currentScript&quot;in document?document.currentScript:function(){for(var t=document.getElementsByTagName(&quot;script&quot;),e=t.length;e--;)if(t[e].getAttribute(&quot;cf-hash&quot;))return t[e]}();if(t&amp;&amp;t.previousSibling){var e,r,n,i,c=t.previousSibling,a=c.getAttribute(&quot;data-cfemail&quot;);if(a){for(e=&quot;&quot;,r=parseInt(a.substr(0,2),16),n=2;a.length-n;n+=2)i=parseInt(a.substr(n,2),16)^r,e+=String.fromCharCode(i);e=document.createTextNode(e),c.parentNode.replaceChild(e,c)}}}catch(u){}}();/* ]]&gt; */&lt;/script&gt;\nFormat settings, CABAC                   : Yes\nFormat settings, ReFrames                : 9 frames\nCodec ID                                 : V_MPEG4/ISO/AVC\nDuration                                 : 1h 28mn\nBit rate                                 : 2 000 Kbps\nWidth                                    : 720 pixels\nHeight                                   : 552 pixels\nDisplay aspect ratio                     : 1.85:1\nFrame rate mode                          : Constant\nFrame rate                               : 25.000 fps\nColor space                              : YUV\nChroma subsampling                       : 4:2:0\nBit depth                                : 8 bits\nScan type                                : Progressive\nBits/(Pixel*Frame)                       : 0.201\nStream size                              : 1.21 GiB (89%)\nWriting library                          : x264 core 138 r2358 9e941d1\nEncoding settings                        : cabac=1 / ref=9 / deblock=1:-3:-3 / analyse=0x3:0x133 / me=umh / subme=10 / psy=1 / psy_rd=1.00:0.15 / mixed_ref=1 / me_range=28 / chroma_me=1 / trellis=2 / 8x8dct=1 / cqm=0 / deadzone=21,11 / fast_pskip=0 / chroma_qp_offset=-3 / threads=3 / lookahead_threads=1 / sliced_threads=0 / nr=0 / decimate=0 / interlaced=0 / bluray_compat=0 / constrained_intra=0 / bframes=5 / b_pyramid=2 / b_adapt=2 / b_bias=0 / direct=3 / weightb=1 / open_gop=0 / weightp=2 / keyint=250 / keyint_min=25 / scenecut=40 / intra_refresh=0 / rc_lookahead=60 / rc=2pass / mbtree=1 / bitrate=2000 / ratetol=3.0 / qcomp=0.60 / qpmin=0 / qpmax=69 / qpstep=4 / cplxblur=20.0 / qblur=0.5 / vbv_maxrate=14000 / vbv_bufsize=14000 / nal_hrd=none / ip_ratio=1.40 / aq=1:1.00\nLanguage                                 : English\nDefault                                  : Yes\nForced                                   : No\n\nAudio\nID                                       : 2\nFormat                                   : AC-3\nFormat/Info                              : Audio Coding 3\nMode extension                           : CM (complete main)\nFormat settings, Endianness              : Big\nCodec ID                                 : A_AC3\nDuration                                 : 1h 28mn\nBit rate mode                            : Constant\nBit rate                                 : 192 Kbps\nChannel count                            : 6 channels\nChannel positions                        : Front: L C R, Side: L R, LFE\nSampling rate                            : 48.0 KHz\nBit depth                                : 16 bits\nCompression mode                         : Lossy\nStream size                              : 121 MiB (9%)\nDefault                                  : Yes\nForced                                   : No\n\nText #1\nID                                       : 3\nFormat                                   : VobSub\nMuxing mode                              : zlib\nCodec ID                                 : S_VOBSUB\nCodec ID/Info                            : The same subtitle format used on DVDs\nLanguage                                 : Italian\nDefault                                  : Yes\nForced                                   : No\n\nText #2\nID                                       : 4\nFormat                                   : VobSub\nMuxing mode                              : zlib\nCodec ID                                 : S_VOBSUB\nCodec ID/Info                            : The same subtitle format used on DVDs\nLanguage                                 : Italian\nDefault                                  : No\nForced                                   : No\n\n",
  "parsed": {
    "xt": "urn:btih:11412093f19b55becb6a9b7d2937ce33b8afb522",
    "dn": "Still.Life.2013.DVDRip.x264.HORiZON-ArtSubs",
    "tr": [
      "udp://exodus.desync.com:6969",
      "udp://open.demonii.com:1337",
      "udp://tracker.coppersurfer.tk:6969",
      "udp://tracker.openbittorrent.com:80"
    ],
    "infoHash": "11412093f19b55becb6a9b7d2937ce33b8afb522",
    "infoHashBuffer": {
      "type": "Buffer",
      "data": [
        17,
        65,
        32,
        147,
        241,
        155,
        85,
        190,
        203,
        106,
        155,
        125,
        41,
        55,
        206,
        51,
        184,
        175,
        181,
        34
      ]
    },
    "name": "Still.Life.2013.DVDRip.x264.HORiZON-ArtSubs",
    "announce": [
      "udp://exodus.desync.com:6969",
      "udp://open.demonii.com:1337",
      "udp://tracker.coppersurfer.tk:6969",
      "udp://tracker.openbittorrent.com:80"
    ],
    "urlList": []
  },
  "previous": 50,
  "peers": 34,
  "last_updated": "2016-12-26T16:37:21.844Z"
}